<svg xmlns="http://www.w3.org/2000/svg" viewBox="0 0 32 32" fill="none">
    <path fill="#d7dae0" d="M9.14 24.34c-.64 1.37.27 7.47 7.65 7.66 7.38.18 8.38-6.38 7.84-7.84.31-.24 1.85-1.46 4.64-3.64.73-8.38 1.14-13.03 1.22-13.96.03-.39-.23-.84-.59-1C28.65 5.02 18.69.66 17.44.12c-.36-.16-.94-.16-1.3 0C14.88.67 4.85 5.1 3.59 5.65c-.36.16-.62.61-.59 1 .08.92.49 5.55 1.22 13.87 2.95 2.29 4.59 3.57 4.92 3.82zm5.83-9.02l-.09 10.48-9.39-6.74-.54-10.12 10.02 6.38zm13.57-6.01L28 18.97l-9.48 6.83.09-10.39 9.93-6.1zm-16.39-5.6l1.3.89-3.66 4.06.16.05 7.02-2.79-2.4 3 4.65-1.8-2.25 3 2.5 1.59-2.58 1.48L5.58 6.58l6.57-2.87zm7.94.1l-6.75 2.55 2.1-2.25-1.82-1.19 3.17-1.44L28 6.58l-7.01 4.17-2.25-1.24 3.45-4.65-4.35 1.72 2.25-2.77z"/>
</svg>
